<mxfile host="app.diagrams.net" modified="2024-01-04T01:07:43.524Z" agent="Mozilla/5.0 (Windows NT 10.0; Win64; x64) AppleWebKit/537.36 (KHTML, like Gecko) Chrome/120.0.0.0 Safari/537.36" etag="X0nqLwi3FJOh6EMmdk86" version="22.1.16" type="github">
  <diagram id="R2lEEEUBdFMjLlhIrx00" name="Page-1">
    <mxGraphModel dx="1434" dy="1640" grid="1" gridSize="10" guides="1" tooltips="1" connect="1" arrows="1" fold="1" page="1" pageScale="1" pageWidth="1100" pageHeight="850" math="0" shadow="0" extFonts="Permanent Marker^https://fonts.googleapis.com/css?family=Permanent+Marker">
      <root>
        <mxCell id="0" />
        <mxCell id="1" parent="0" />
        <mxCell id="qhj9iDrqFLKjC4mHPjqA-6" style="rounded=0;orthogonalLoop=1;jettySize=auto;html=1;exitX=0;exitY=0.5;exitDx=0;exitDy=0;entryX=0.5;entryY=1;entryDx=0;entryDy=0;endArrow=none;endFill=0;" parent="1" source="qhj9iDrqFLKjC4mHPjqA-2" target="qhj9iDrqFLKjC4mHPjqA-3" edge="1">
          <mxGeometry relative="1" as="geometry" />
        </mxCell>
        <mxCell id="qhj9iDrqFLKjC4mHPjqA-7" style="rounded=0;orthogonalLoop=1;jettySize=auto;html=1;exitX=0;exitY=0.5;exitDx=0;exitDy=0;entryX=1;entryY=0.5;entryDx=0;entryDy=0;endArrow=none;endFill=0;" parent="1" source="qhj9iDrqFLKjC4mHPjqA-2" target="qhj9iDrqFLKjC4mHPjqA-4" edge="1">
          <mxGeometry relative="1" as="geometry" />
        </mxCell>
        <mxCell id="qhj9iDrqFLKjC4mHPjqA-15" value="" style="edgeStyle=orthogonalEdgeStyle;rounded=0;orthogonalLoop=1;jettySize=auto;html=1;endArrow=none;endFill=0;" parent="1" source="qhj9iDrqFLKjC4mHPjqA-2" target="qhj9iDrqFLKjC4mHPjqA-14" edge="1">
          <mxGeometry relative="1" as="geometry" />
        </mxCell>
        <mxCell id="qhj9iDrqFLKjC4mHPjqA-19" style="rounded=0;orthogonalLoop=1;jettySize=auto;html=1;exitX=0;exitY=0.5;exitDx=0;exitDy=0;entryX=1;entryY=0.5;entryDx=0;entryDy=0;endArrow=none;endFill=0;" parent="1" source="qhj9iDrqFLKjC4mHPjqA-2" target="qhj9iDrqFLKjC4mHPjqA-18" edge="1">
          <mxGeometry relative="1" as="geometry" />
        </mxCell>
        <mxCell id="orAZ0pFojhcZtCjdtjbD-5" value="" style="rounded=0;orthogonalLoop=1;jettySize=auto;html=1;endArrow=none;endFill=0;" edge="1" parent="1" source="qhj9iDrqFLKjC4mHPjqA-2" target="orAZ0pFojhcZtCjdtjbD-4">
          <mxGeometry relative="1" as="geometry" />
        </mxCell>
        <mxCell id="orAZ0pFojhcZtCjdtjbD-14" style="rounded=0;orthogonalLoop=1;jettySize=auto;html=1;exitX=0;exitY=0.5;exitDx=0;exitDy=0;entryX=0.5;entryY=1;entryDx=0;entryDy=0;endArrow=none;endFill=0;" edge="1" parent="1" source="qhj9iDrqFLKjC4mHPjqA-2" target="orAZ0pFojhcZtCjdtjbD-13">
          <mxGeometry relative="1" as="geometry" />
        </mxCell>
        <mxCell id="qhj9iDrqFLKjC4mHPjqA-2" value="Products" style="rounded=1;whiteSpace=wrap;html=1;" parent="1" vertex="1">
          <mxGeometry x="230" y="-450" width="170" height="100" as="geometry" />
        </mxCell>
        <mxCell id="qhj9iDrqFLKjC4mHPjqA-3" value="Product Id" style="ellipse;whiteSpace=wrap;html=1;" parent="1" vertex="1">
          <mxGeometry x="50" y="-560" width="80" height="50" as="geometry" />
        </mxCell>
        <mxCell id="qhj9iDrqFLKjC4mHPjqA-4" value="Product Name" style="ellipse;whiteSpace=wrap;html=1;" parent="1" vertex="1">
          <mxGeometry x="30" y="-490" width="80" height="50" as="geometry" />
        </mxCell>
        <mxCell id="qhj9iDrqFLKjC4mHPjqA-8" value="Product Image" style="ellipse;whiteSpace=wrap;html=1;" parent="1" vertex="1">
          <mxGeometry x="30" y="-360" width="80" height="50" as="geometry" />
        </mxCell>
        <mxCell id="qhj9iDrqFLKjC4mHPjqA-9" value="Product Price" style="ellipse;whiteSpace=wrap;html=1;" parent="1" vertex="1">
          <mxGeometry x="40" y="-300" width="80" height="50" as="geometry" />
        </mxCell>
        <mxCell id="qhj9iDrqFLKjC4mHPjqA-10" style="rounded=0;orthogonalLoop=1;jettySize=auto;html=1;exitX=0;exitY=0.5;exitDx=0;exitDy=0;entryX=1;entryY=0.5;entryDx=0;entryDy=0;endArrow=none;endFill=0;" parent="1" source="qhj9iDrqFLKjC4mHPjqA-2" target="qhj9iDrqFLKjC4mHPjqA-8" edge="1">
          <mxGeometry relative="1" as="geometry">
            <mxPoint x="240" y="-400" as="sourcePoint" />
            <mxPoint x="150" y="-455" as="targetPoint" />
          </mxGeometry>
        </mxCell>
        <mxCell id="qhj9iDrqFLKjC4mHPjqA-11" style="rounded=0;orthogonalLoop=1;jettySize=auto;html=1;exitX=0;exitY=0.5;exitDx=0;exitDy=0;entryX=1;entryY=0.5;entryDx=0;entryDy=0;endArrow=none;endFill=0;" parent="1" source="qhj9iDrqFLKjC4mHPjqA-2" target="qhj9iDrqFLKjC4mHPjqA-9" edge="1">
          <mxGeometry relative="1" as="geometry">
            <mxPoint x="240" y="-400" as="sourcePoint" />
            <mxPoint x="150" y="-340" as="targetPoint" />
          </mxGeometry>
        </mxCell>
        <mxCell id="qhj9iDrqFLKjC4mHPjqA-17" value="" style="edgeStyle=orthogonalEdgeStyle;rounded=0;orthogonalLoop=1;jettySize=auto;html=1;endArrow=none;endFill=0;" parent="1" source="qhj9iDrqFLKjC4mHPjqA-14" target="qhj9iDrqFLKjC4mHPjqA-16" edge="1">
          <mxGeometry relative="1" as="geometry" />
        </mxCell>
        <mxCell id="qhj9iDrqFLKjC4mHPjqA-14" value="Add To Cart" style="rhombus;whiteSpace=wrap;html=1;rounded=1;" parent="1" vertex="1">
          <mxGeometry x="520" y="-460" width="110" height="120" as="geometry" />
        </mxCell>
        <mxCell id="qhj9iDrqFLKjC4mHPjqA-39" style="rounded=0;orthogonalLoop=1;jettySize=auto;html=1;exitX=1;exitY=0.5;exitDx=0;exitDy=0;entryX=0;entryY=0.5;entryDx=0;entryDy=0;endArrow=none;endFill=0;" parent="1" source="qhj9iDrqFLKjC4mHPjqA-16" target="qhj9iDrqFLKjC4mHPjqA-35" edge="1">
          <mxGeometry relative="1" as="geometry" />
        </mxCell>
        <mxCell id="orAZ0pFojhcZtCjdtjbD-2" style="rounded=0;orthogonalLoop=1;jettySize=auto;html=1;exitX=0.5;exitY=1;exitDx=0;exitDy=0;entryX=0.5;entryY=0;entryDx=0;entryDy=0;endArrow=none;endFill=0;" edge="1" parent="1" source="qhj9iDrqFLKjC4mHPjqA-16" target="orAZ0pFojhcZtCjdtjbD-1">
          <mxGeometry relative="1" as="geometry" />
        </mxCell>
        <mxCell id="qhj9iDrqFLKjC4mHPjqA-16" value="Cart" style="rounded=1;whiteSpace=wrap;html=1;" parent="1" vertex="1">
          <mxGeometry x="770" y="-450" width="170" height="100" as="geometry" />
        </mxCell>
        <mxCell id="qhj9iDrqFLKjC4mHPjqA-18" value="Product Stock" style="ellipse;whiteSpace=wrap;html=1;" parent="1" vertex="1">
          <mxGeometry x="80" y="-250" width="80" height="50" as="geometry" />
        </mxCell>
        <mxCell id="qhj9iDrqFLKjC4mHPjqA-34" value="Category Id" style="ellipse;whiteSpace=wrap;html=1;" parent="1" vertex="1">
          <mxGeometry x="940" y="-560" width="80" height="50" as="geometry" />
        </mxCell>
        <mxCell id="qhj9iDrqFLKjC4mHPjqA-35" value="Product Id" style="ellipse;whiteSpace=wrap;html=1;" parent="1" vertex="1">
          <mxGeometry x="1000" y="-500" width="80" height="50" as="geometry" />
        </mxCell>
        <mxCell id="qhj9iDrqFLKjC4mHPjqA-36" value="Product Price" style="ellipse;whiteSpace=wrap;html=1;" parent="1" vertex="1">
          <mxGeometry x="1000" y="-380" width="80" height="50" as="geometry" />
        </mxCell>
        <mxCell id="qhj9iDrqFLKjC4mHPjqA-37" value="Product Name" style="ellipse;whiteSpace=wrap;html=1;" parent="1" vertex="1">
          <mxGeometry x="1000" y="-440" width="80" height="50" as="geometry" />
        </mxCell>
        <mxCell id="qhj9iDrqFLKjC4mHPjqA-38" value="Quantity" style="ellipse;whiteSpace=wrap;html=1;" parent="1" vertex="1">
          <mxGeometry x="1000" y="-310" width="80" height="50" as="geometry" />
        </mxCell>
        <mxCell id="qhj9iDrqFLKjC4mHPjqA-40" style="rounded=0;orthogonalLoop=1;jettySize=auto;html=1;exitX=1;exitY=0.5;exitDx=0;exitDy=0;entryX=0;entryY=0.5;entryDx=0;entryDy=0;endArrow=none;endFill=0;" parent="1" source="qhj9iDrqFLKjC4mHPjqA-16" target="qhj9iDrqFLKjC4mHPjqA-37" edge="1">
          <mxGeometry relative="1" as="geometry">
            <mxPoint x="865" y="-440" as="sourcePoint" />
            <mxPoint x="800" y="-490" as="targetPoint" />
          </mxGeometry>
        </mxCell>
        <mxCell id="qhj9iDrqFLKjC4mHPjqA-41" style="rounded=0;orthogonalLoop=1;jettySize=auto;html=1;exitX=1;exitY=0.5;exitDx=0;exitDy=0;entryX=0.5;entryY=1;entryDx=0;entryDy=0;endArrow=none;endFill=0;" parent="1" source="qhj9iDrqFLKjC4mHPjqA-16" target="qhj9iDrqFLKjC4mHPjqA-34" edge="1">
          <mxGeometry relative="1" as="geometry">
            <mxPoint x="865" y="-440" as="sourcePoint" />
            <mxPoint x="860" y="-540" as="targetPoint" />
          </mxGeometry>
        </mxCell>
        <mxCell id="qhj9iDrqFLKjC4mHPjqA-42" style="rounded=0;orthogonalLoop=1;jettySize=auto;html=1;exitX=1;exitY=0.5;exitDx=0;exitDy=0;entryX=0;entryY=0.5;entryDx=0;entryDy=0;endArrow=none;endFill=0;" parent="1" source="qhj9iDrqFLKjC4mHPjqA-16" target="qhj9iDrqFLKjC4mHPjqA-36" edge="1">
          <mxGeometry relative="1" as="geometry">
            <mxPoint x="865" y="-440" as="sourcePoint" />
            <mxPoint x="950" y="-540" as="targetPoint" />
          </mxGeometry>
        </mxCell>
        <mxCell id="qhj9iDrqFLKjC4mHPjqA-43" style="rounded=0;orthogonalLoop=1;jettySize=auto;html=1;entryX=0;entryY=0.5;entryDx=0;entryDy=0;endArrow=none;endFill=0;" parent="1" target="qhj9iDrqFLKjC4mHPjqA-38" edge="1">
          <mxGeometry relative="1" as="geometry">
            <mxPoint x="940" y="-400" as="sourcePoint" />
            <mxPoint x="1010" y="-490" as="targetPoint" />
          </mxGeometry>
        </mxCell>
        <mxCell id="qhj9iDrqFLKjC4mHPjqA-44" value="Total &lt;br&gt;( Price * Quantity )" style="ellipse;whiteSpace=wrap;html=1;" parent="1" vertex="1">
          <mxGeometry x="980" y="-240" width="110" height="60" as="geometry" />
        </mxCell>
        <mxCell id="qhj9iDrqFLKjC4mHPjqA-45" style="rounded=0;orthogonalLoop=1;jettySize=auto;html=1;entryX=0;entryY=0.5;entryDx=0;entryDy=0;endArrow=none;endFill=0;exitX=1;exitY=0.5;exitDx=0;exitDy=0;" parent="1" source="qhj9iDrqFLKjC4mHPjqA-16" target="qhj9iDrqFLKjC4mHPjqA-44" edge="1">
          <mxGeometry relative="1" as="geometry">
            <mxPoint x="950" y="-390" as="sourcePoint" />
            <mxPoint x="1020" y="-285" as="targetPoint" />
          </mxGeometry>
        </mxCell>
        <mxCell id="qhj9iDrqFLKjC4mHPjqA-46" value="Checkout" style="rounded=1;whiteSpace=wrap;html=1;" parent="1" vertex="1">
          <mxGeometry x="570" y="-80" width="170" height="100" as="geometry" />
        </mxCell>
        <mxCell id="qhj9iDrqFLKjC4mHPjqA-48" style="rounded=0;orthogonalLoop=1;jettySize=auto;html=1;exitX=0.5;exitY=1;exitDx=0;exitDy=0;entryX=0.5;entryY=0;entryDx=0;entryDy=0;endArrow=none;endFill=0;" parent="1" source="qhj9iDrqFLKjC4mHPjqA-46" target="qhj9iDrqFLKjC4mHPjqA-50" edge="1">
          <mxGeometry relative="1" as="geometry">
            <mxPoint x="668" y="60" as="sourcePoint" />
          </mxGeometry>
        </mxCell>
        <mxCell id="qhj9iDrqFLKjC4mHPjqA-49" value="Category Id" style="ellipse;whiteSpace=wrap;html=1;" parent="1" vertex="1">
          <mxGeometry x="400" y="100" width="80" height="50" as="geometry" />
        </mxCell>
        <mxCell id="qhj9iDrqFLKjC4mHPjqA-50" value="Product Id" style="ellipse;whiteSpace=wrap;html=1;" parent="1" vertex="1">
          <mxGeometry x="470" y="150" width="80" height="50" as="geometry" />
        </mxCell>
        <mxCell id="qhj9iDrqFLKjC4mHPjqA-51" value="Product Price" style="ellipse;whiteSpace=wrap;html=1;" parent="1" vertex="1">
          <mxGeometry x="650" y="190" width="80" height="50" as="geometry" />
        </mxCell>
        <mxCell id="qhj9iDrqFLKjC4mHPjqA-52" value="Product Name" style="ellipse;whiteSpace=wrap;html=1;" parent="1" vertex="1">
          <mxGeometry x="560" y="180" width="80" height="50" as="geometry" />
        </mxCell>
        <mxCell id="qhj9iDrqFLKjC4mHPjqA-53" value="Quantity" style="ellipse;whiteSpace=wrap;html=1;" parent="1" vertex="1">
          <mxGeometry x="740" y="170" width="80" height="50" as="geometry" />
        </mxCell>
        <mxCell id="qhj9iDrqFLKjC4mHPjqA-54" style="rounded=0;orthogonalLoop=1;jettySize=auto;html=1;exitX=0.5;exitY=1;exitDx=0;exitDy=0;entryX=0.5;entryY=0;entryDx=0;entryDy=0;endArrow=none;endFill=0;" parent="1" source="qhj9iDrqFLKjC4mHPjqA-46" target="qhj9iDrqFLKjC4mHPjqA-52" edge="1">
          <mxGeometry relative="1" as="geometry">
            <mxPoint x="668" y="60" as="sourcePoint" />
            <mxPoint x="528" y="-30" as="targetPoint" />
          </mxGeometry>
        </mxCell>
        <mxCell id="qhj9iDrqFLKjC4mHPjqA-55" style="rounded=0;orthogonalLoop=1;jettySize=auto;html=1;exitX=0.5;exitY=1;exitDx=0;exitDy=0;entryX=0.5;entryY=0;entryDx=0;entryDy=0;endArrow=none;endFill=0;" parent="1" source="qhj9iDrqFLKjC4mHPjqA-46" target="qhj9iDrqFLKjC4mHPjqA-49" edge="1">
          <mxGeometry relative="1" as="geometry">
            <mxPoint x="668" y="60" as="sourcePoint" />
            <mxPoint x="588" y="-80" as="targetPoint" />
          </mxGeometry>
        </mxCell>
        <mxCell id="qhj9iDrqFLKjC4mHPjqA-56" style="rounded=0;orthogonalLoop=1;jettySize=auto;html=1;exitX=0.5;exitY=1;exitDx=0;exitDy=0;entryX=0.5;entryY=0;entryDx=0;entryDy=0;endArrow=none;endFill=0;" parent="1" source="qhj9iDrqFLKjC4mHPjqA-46" target="qhj9iDrqFLKjC4mHPjqA-51" edge="1">
          <mxGeometry relative="1" as="geometry">
            <mxPoint x="668" y="60" as="sourcePoint" />
            <mxPoint x="678" y="-80" as="targetPoint" />
          </mxGeometry>
        </mxCell>
        <mxCell id="qhj9iDrqFLKjC4mHPjqA-57" style="rounded=0;orthogonalLoop=1;jettySize=auto;html=1;entryX=0.5;entryY=0;entryDx=0;entryDy=0;endArrow=none;endFill=0;exitX=0.5;exitY=1;exitDx=0;exitDy=0;" parent="1" source="qhj9iDrqFLKjC4mHPjqA-46" target="qhj9iDrqFLKjC4mHPjqA-53" edge="1">
          <mxGeometry relative="1" as="geometry">
            <mxPoint x="668" y="60" as="sourcePoint" />
            <mxPoint x="738" y="-30" as="targetPoint" />
          </mxGeometry>
        </mxCell>
        <mxCell id="qhj9iDrqFLKjC4mHPjqA-58" value="Total" style="ellipse;whiteSpace=wrap;html=1;" parent="1" vertex="1">
          <mxGeometry x="815" y="120" width="80" height="50" as="geometry" />
        </mxCell>
        <mxCell id="qhj9iDrqFLKjC4mHPjqA-59" style="rounded=0;orthogonalLoop=1;jettySize=auto;html=1;entryX=0.5;entryY=0;entryDx=0;entryDy=0;endArrow=none;endFill=0;exitX=0.5;exitY=1;exitDx=0;exitDy=0;" parent="1" source="qhj9iDrqFLKjC4mHPjqA-46" target="qhj9iDrqFLKjC4mHPjqA-58" edge="1">
          <mxGeometry relative="1" as="geometry">
            <mxPoint x="668" y="60" as="sourcePoint" />
            <mxPoint x="748" y="175" as="targetPoint" />
          </mxGeometry>
        </mxCell>
        <mxCell id="O5hnfrGLlEuDVOesLOST-1" value="Product Description" style="ellipse;whiteSpace=wrap;html=1;" parent="1" vertex="1">
          <mxGeometry x="30" y="-430" width="80" height="50" as="geometry" />
        </mxCell>
        <mxCell id="O5hnfrGLlEuDVOesLOST-2" style="rounded=0;orthogonalLoop=1;jettySize=auto;html=1;exitX=0;exitY=0.5;exitDx=0;exitDy=0;entryX=1;entryY=0.5;entryDx=0;entryDy=0;endArrow=none;endFill=0;" parent="1" source="qhj9iDrqFLKjC4mHPjqA-2" target="O5hnfrGLlEuDVOesLOST-1" edge="1">
          <mxGeometry relative="1" as="geometry">
            <mxPoint x="240" y="-390" as="sourcePoint" />
            <mxPoint x="180" y="-515" as="targetPoint" />
          </mxGeometry>
        </mxCell>
        <mxCell id="orAZ0pFojhcZtCjdtjbD-1" value="Proceed To Checkout" style="rhombus;whiteSpace=wrap;html=1;" vertex="1" parent="1">
          <mxGeometry x="807.5" y="-75" width="95" height="90" as="geometry" />
        </mxCell>
        <mxCell id="orAZ0pFojhcZtCjdtjbD-3" style="rounded=0;orthogonalLoop=1;jettySize=auto;html=1;exitX=0;exitY=0.5;exitDx=0;exitDy=0;entryX=1;entryY=0.5;entryDx=0;entryDy=0;endArrow=none;endFill=0;" edge="1" parent="1" source="orAZ0pFojhcZtCjdtjbD-1" target="qhj9iDrqFLKjC4mHPjqA-46">
          <mxGeometry relative="1" as="geometry">
            <mxPoint x="955" y="-330" as="sourcePoint" />
            <mxPoint x="880" y="-220" as="targetPoint" />
          </mxGeometry>
        </mxCell>
        <mxCell id="orAZ0pFojhcZtCjdtjbD-4" value="Category" style="whiteSpace=wrap;html=1;rounded=1;" vertex="1" parent="1">
          <mxGeometry x="240" y="-660" width="170" height="80" as="geometry" />
        </mxCell>
        <mxCell id="orAZ0pFojhcZtCjdtjbD-10" style="rounded=0;orthogonalLoop=1;jettySize=auto;html=1;exitX=0.5;exitY=1;exitDx=0;exitDy=0;entryX=0.5;entryY=0;entryDx=0;entryDy=0;endArrow=none;endFill=0;" edge="1" parent="1" source="orAZ0pFojhcZtCjdtjbD-8" target="orAZ0pFojhcZtCjdtjbD-4">
          <mxGeometry relative="1" as="geometry" />
        </mxCell>
        <mxCell id="orAZ0pFojhcZtCjdtjbD-8" value="Category Id" style="ellipse;whiteSpace=wrap;html=1;" vertex="1" parent="1">
          <mxGeometry x="240" y="-770" width="80" height="50" as="geometry" />
        </mxCell>
        <mxCell id="orAZ0pFojhcZtCjdtjbD-11" style="rounded=0;orthogonalLoop=1;jettySize=auto;html=1;exitX=0.5;exitY=0;exitDx=0;exitDy=0;entryX=0.5;entryY=0;entryDx=0;entryDy=0;endArrow=none;endFill=0;" edge="1" parent="1" source="orAZ0pFojhcZtCjdtjbD-9" target="orAZ0pFojhcZtCjdtjbD-4">
          <mxGeometry relative="1" as="geometry" />
        </mxCell>
        <mxCell id="orAZ0pFojhcZtCjdtjbD-9" value="Category Name" style="ellipse;whiteSpace=wrap;html=1;" vertex="1" parent="1">
          <mxGeometry x="330" y="-770" width="80" height="50" as="geometry" />
        </mxCell>
        <mxCell id="orAZ0pFojhcZtCjdtjbD-13" value="Category Id" style="ellipse;whiteSpace=wrap;html=1;" vertex="1" parent="1">
          <mxGeometry x="130" y="-600" width="80" height="50" as="geometry" />
        </mxCell>
      </root>
    </mxGraphModel>
  </diagram>
</mxfile>
